<svg width="167" height="36" viewBox="0 0 167 36" fill="none" xmlns="http://www.w3.org/2000/svg">
<path d="M18.7195 7.4H23.9275C24.0955 7.4 24.2355 7.46533 24.3475 7.596C24.4782 7.708 24.5435 7.82 24.5435 7.932C24.5435 8.044 24.5342 8.13733 24.5155 8.212L19.2515 26.076C19.0835 26.692 18.6635 27 17.9915 27H11.6075C10.9355 27 10.5155 26.692 10.3475 26.076L5.08354 8.212C5.06488 8.13733 5.05554 8.044 5.05554 7.932C5.05554 7.82 5.11154 7.708 5.22354 7.596C5.35421 7.46533 5.50354 7.4 5.67154 7.4H10.8795C11.5515 7.4 11.9715 7.708 12.1395 8.324L14.7995 18.74L17.4595 8.324C17.6275 7.708 18.0475 7.4 18.7195 7.4ZM44.904 26.076C44.96 26.188 44.988 26.3093 44.988 26.44C44.988 26.5707 44.9226 26.7013 44.792 26.832C44.68 26.944 44.54 27 44.372 27H38.632C38.0533 27 37.652 26.748 37.428 26.244L35.02 20.896H33.872V26.244C33.872 26.4493 33.7973 26.6267 33.648 26.776C33.4986 26.9253 33.3213 27 33.116 27H27.628C27.4226 27 27.2453 26.9253 27.096 26.776C26.9466 26.6267 26.872 26.4493 26.872 26.244V8.156C26.872 7.95067 26.9466 7.77333 27.096 7.624C27.2453 7.47467 27.4226 7.4 27.628 7.4H35.916C38.604 7.4 40.704 8.00667 42.216 9.22C43.728 10.4147 44.484 12.1413 44.484 14.4C44.484 16.64 43.476 18.404 41.46 19.692L44.904 26.076ZM33.872 12.608V15.576H35.916C36.3266 15.576 36.644 15.4453 36.868 15.184C37.092 14.904 37.204 14.5587 37.204 14.148C37.204 13.7373 37.092 13.3827 36.868 13.084C36.6626 12.7667 36.3453 12.608 35.916 12.608H33.872ZM54.4732 14.848V19.552C54.4732 21.064 55.1639 21.82 56.5452 21.82C57.6092 21.82 58.3092 21.316 58.6452 20.308C58.7385 19.9907 58.8505 19.776 58.9812 19.664C59.1305 19.552 59.3639 19.496 59.6812 19.496H65.3932C65.5612 19.496 65.7012 19.5613 65.8132 19.692C65.9439 19.804 66.0092 19.944 66.0092 20.112C66.0092 21.736 65.5425 23.0987 64.6092 24.2C62.8919 26.2533 60.2132 27.28 56.5732 27.28C53.7172 27.28 51.4399 26.6547 49.7412 25.404C48.0425 24.1347 47.1932 22.1933 47.1932 19.58V14.82C47.1932 12.2627 48.0612 10.34 49.7972 9.052C51.5332 7.764 53.7919 7.12 56.5732 7.12C60.2132 7.12 62.8919 8.14667 64.6092 10.2C65.5425 11.3013 66.0092 12.664 66.0092 14.288C66.0092 14.456 65.9439 14.6053 65.8132 14.736C65.7012 14.848 65.5612 14.904 65.3932 14.904H59.6812C59.3825 14.904 59.1585 14.848 59.0092 14.736C58.8785 14.624 58.7572 14.4093 58.6452 14.092C58.2905 13.084 57.5905 12.58 56.5452 12.58C55.1639 12.58 54.4732 13.336 54.4732 14.848ZM68.5472 7.4H84.9552C85.1605 7.4 85.3378 7.47467 85.4872 7.624C85.6365 7.77333 85.7112 7.95067 85.7112 8.156V12.664C85.7112 12.8693 85.6365 13.0467 85.4872 13.196C85.3378 13.3453 85.1605 13.42 84.9552 13.42H80.3072V26.244C80.3072 26.4493 80.2325 26.6267 80.0832 26.776C79.9338 26.9253 79.7565 27 79.5512 27H73.9512C73.7458 27 73.5685 26.9253 73.4192 26.776C73.2698 26.6267 73.1952 26.4493 73.1952 26.244V13.42H68.5472C68.3418 13.42 68.1645 13.3453 68.0152 13.196C67.8658 13.0467 67.7912 12.8693 67.7912 12.664V8.156C67.7912 7.95067 67.8658 7.77333 68.0152 7.624C68.1645 7.47467 68.3418 7.4 68.5472 7.4ZM102.841 21.372H94.4966V21.512C94.4966 22.6507 94.8606 23.22 95.5886 23.22C95.794 23.22 96.046 23.0707 96.3446 22.772C96.6433 22.4733 96.97 22.324 97.3246 22.324H102.617C103.027 22.324 103.233 22.5293 103.233 22.94C103.233 23.8547 102.542 24.8067 101.161 25.796C99.798 26.7853 97.9406 27.28 95.5886 27.28C93.2553 27.28 91.342 26.6733 89.8486 25.46C88.374 24.228 87.6366 22.5387 87.6366 20.392V19.048C87.6366 17.0133 88.3926 15.3613 89.9046 14.092C91.4166 12.804 93.3953 12.16 95.8406 12.16C98.3046 12.16 100.209 12.8787 101.553 14.316C102.915 15.7533 103.597 17.5733 103.597 19.776V20.616C103.597 20.8213 103.522 20.9987 103.373 21.148C103.223 21.2973 103.046 21.372 102.841 21.372ZM96.7366 17.76C96.7366 16.64 96.3633 16.08 95.6166 16.08C94.87 16.08 94.4966 16.64 94.4966 17.76V17.872H96.7366V17.76ZM105.647 22.828C105.647 20.308 107.691 18.6933 111.779 17.984L114.747 17.508C114.747 16.948 114.7 16.5747 114.607 16.388C114.513 16.1827 114.289 16.08 113.935 16.08C113.599 16.08 113.263 16.2293 112.927 16.528C112.591 16.8267 112.273 16.976 111.975 16.976H107.215C106.804 16.976 106.599 16.78 106.599 16.388C106.599 15.9773 106.739 15.548 107.019 15.1C107.317 14.6333 107.737 14.176 108.279 13.728C108.839 13.28 109.613 12.9067 110.603 12.608C111.611 12.3093 112.731 12.16 113.963 12.16C116.464 12.16 118.34 12.6827 119.591 13.728C120.841 14.7733 121.467 16.2667 121.467 18.208V26.244C121.467 26.4493 121.392 26.6267 121.243 26.776C121.093 26.9253 120.916 27 120.711 27H115.811C115.605 27 115.428 26.9253 115.279 26.776C115.129 26.6267 115.055 26.4493 115.055 26.244V25.46C114.177 26.6733 112.899 27.28 111.219 27.28C109.539 27.28 108.185 26.86 107.159 26.02C106.151 25.1613 105.647 24.0973 105.647 22.828ZM113.011 23.136C114.224 23.136 114.831 22.408 114.831 20.952L113.179 21.316C112.357 21.5027 111.947 21.848 111.947 22.352C111.947 22.576 112.04 22.7627 112.227 22.912C112.413 23.0613 112.675 23.136 113.011 23.136ZM140.538 17.172C140.239 17.172 139.978 17.284 139.754 17.508C139.548 17.732 139.446 18.068 139.446 18.516V26.244C139.446 26.4493 139.371 26.6267 139.222 26.776C139.072 26.9253 138.895 27 138.69 27H133.762C133.556 27 133.379 26.9253 133.23 26.776C133.08 26.6267 133.006 26.4493 133.006 26.244V18.712C133.006 17.6853 132.632 17.172 131.886 17.172C131.568 17.172 131.298 17.2933 131.074 17.536C130.868 17.76 130.766 18.0773 130.766 18.488V26.244C130.766 26.4493 130.691 26.6267 130.542 26.776C130.392 26.9253 130.215 27 130.01 27H124.97C124.764 27 124.587 26.9253 124.438 26.776C124.288 26.6267 124.214 26.4493 124.214 26.244V13.196C124.214 12.9907 124.288 12.8133 124.438 12.664C124.587 12.5147 124.764 12.44 124.97 12.44H129.59C129.795 12.44 129.972 12.5147 130.122 12.664C130.271 12.8133 130.346 12.9907 130.346 13.196V14.12C130.719 13.6347 131.251 13.196 131.942 12.804C132.707 12.3747 133.566 12.16 134.518 12.16C136.571 12.16 137.952 12.9253 138.662 14.456C139.11 13.8027 139.726 13.2613 140.51 12.832C141.294 12.384 142.106 12.16 142.946 12.16C144.458 12.16 145.69 12.692 146.642 13.756C147.612 14.82 148.098 16.4067 148.098 18.516V26.244C148.098 26.4493 148.023 26.6267 147.874 26.776C147.724 26.9253 147.547 27 147.342 27H142.414C142.208 27 142.031 26.9253 141.882 26.776C141.732 26.6267 141.658 26.4493 141.658 26.244V18.712C141.658 17.6853 141.284 17.172 140.538 17.172Z" fill="url(#paint0_linear_201_158)"/>
<defs>
<linearGradient id="paint0_linear_201_158" x1="18.6546" y1="18" x2="145.417" y2="23.6779" gradientUnits="userSpaceOnUse">
<stop stop-color="#019EE4"/>
<stop offset="1" stop-color="#E67F1A"/>
</linearGradient>
</defs>
</svg>
